<svg xmlns="http://www.w3.org/2000/svg" xmlns:xlink="http://www.w3.org/1999/xlink" width="500" zoomAndPan="magnify" viewBox="0 0 375 374.999991" height="500" preserveAspectRatio="xMidYMid meet" version="1.0"><defs><clipPath id="38497e2605"><path d="M 6.992188 283 L 185 283 L 185 337.371094 L 6.992188 337.371094 Z M 6.992188 283 " clip-rule="nonzero"/></clipPath><clipPath id="464a7506ec"><path d="M 190 283 L 367.742188 283 L 367.742188 337.371094 L 190 337.371094 Z M 190 283 " clip-rule="nonzero"/></clipPath><clipPath id="cb598564c2"><path d="M 11 39.621094 L 364 39.621094 L 364 239 L 11 239 Z M 11 39.621094 " clip-rule="nonzero"/></clipPath></defs><path fill="#129bfa" d="M 184.058594 198.6875 C 170.425781 190.507812 117.851562 161.941406 62.683594 172.070312 L 8.679688 271.535156 C 8.679688 271.535156 116.296875 256.863281 184.058594 323.863281 Z M 184.058594 198.6875 " fill-opacity="1" fill-rule="evenodd"/><g clip-path="url(#38497e2605)"><path fill="#129bfa" d="M 184.058594 336.328125 C 168.871094 321.917969 103.3125 266.988281 6.992188 289.0625 L 6.992188 313.605469 C 6.992188 313.605469 96.953125 279.066406 184.058594 337.367188 Z M 184.058594 336.328125 " fill-opacity="1" fill-rule="evenodd"/></g><path fill="#033a7c" d="M 190.808594 198.6875 C 204.308594 190.507812 257.011719 161.941406 312.183594 172.070312 L 366.054688 271.535156 C 366.054688 271.535156 258.441406 256.863281 190.808594 323.863281 Z M 190.808594 198.6875 " fill-opacity="1" fill-rule="evenodd"/><g clip-path="url(#464a7506ec)"><path fill="#033a7c" d="M 190.808594 336.328125 C 205.996094 321.917969 271.421875 266.988281 367.742188 289.0625 L 367.742188 313.605469 C 367.742188 313.605469 277.78125 279.066406 190.808594 337.367188 Z M 190.808594 336.328125 " fill-opacity="1" fill-rule="evenodd"/></g><path fill="#fba405" d="M 187.433594 77.28125 C 225.597656 77.28125 260.128906 92.730469 285.050781 117.792969 C 297.125 129.867188 307.121094 144.28125 314 160.125 C 307.378906 158.953125 300.757812 158.175781 294.007812 157.917969 C 288.425781 147.527344 281.289062 138.050781 272.980469 129.867188 C 251.171875 107.925781 220.792969 94.289062 187.433594 94.289062 C 153.941406 94.289062 123.695312 107.925781 101.757812 129.867188 C 93.449219 138.050781 86.4375 147.527344 80.726562 157.917969 C 74.105469 158.175781 67.355469 158.953125 60.734375 160.125 C 67.746094 144.28125 77.609375 129.867188 89.683594 117.792969 C 114.738281 92.730469 149.269531 77.28125 187.433594 77.28125 Z M 187.433594 77.28125 " fill-opacity="1" fill-rule="nonzero"/><path fill="#f8861a" d="M 187.433594 114.9375 C 215.082031 114.9375 240.265625 126.234375 258.441406 144.410156 C 262.855469 148.828125 266.878906 153.632812 270.382812 158.824219 C 264.023438 159.472656 257.660156 160.511719 251.300781 161.8125 C 249.742188 159.992188 248.183594 158.175781 246.367188 156.488281 C 231.308594 141.296875 210.410156 131.945312 187.433594 131.945312 C 164.324219 131.945312 143.425781 141.296875 128.367188 156.488281 C 126.679688 158.175781 124.992188 159.992188 123.433594 161.8125 C 117.074219 160.511719 110.714844 159.472656 104.351562 158.824219 C 107.855469 153.632812 111.882812 148.828125 116.296875 144.410156 C 134.46875 126.234375 159.652344 114.9375 187.433594 114.9375 Z M 187.433594 114.9375 " fill-opacity="1" fill-rule="nonzero"/><g clip-path="url(#cb598564c2)"><path fill="#fec61c" d="M 187.433594 39.625 C 235.984375 39.625 279.859375 59.359375 311.664062 91.171875 C 343.46875 122.988281 363.199219 166.875 363.199219 215.441406 C 363.199219 223.101562 362.679688 230.761719 361.769531 238.164062 L 346.0625 209.207031 C 344.375 167.785156 326.980469 130.519531 299.589844 103.121094 C 270.902344 74.421875 231.179688 56.632812 187.433594 56.632812 C 143.554688 56.632812 103.832031 74.421875 75.144531 103.121094 C 47.753906 130.519531 30.359375 167.785156 28.800781 209.207031 L 13.09375 238.164062 C 12.054688 230.761719 11.667969 223.101562 11.667969 215.441406 C 11.667969 166.875 31.269531 122.988281 63.070312 91.171875 C 94.875 59.359375 138.882812 39.625 187.433594 39.625 Z M 187.433594 39.625 " fill-opacity="1" fill-rule="nonzero"/></g></svg>